<svg xmlns="http://www.w3.org/2000/svg">
<!-- Публичные иконки -->
    <svg>
        <symbol id="difficult_sort" viewBox="0 0 16 16">
            <path d="M14.5,2C14.7761,2,15,2.22386,15,2.5S14.7761,3,14.5,3h-7C7.22386,3,7,2.77614,7,2.5S7.22386,2,7.5,2H14.5z
	 M15,6.5C15,6.22386,14.7761,6,14.5,6h-9C5.22386,6,5,6.22386,5,6.5S5.22386,7,5.5,7h9C14.7761,7,15,6.77614,15,6.5z M14.5,10
	c0.2761,0,0.5,0.22386,0.5,0.5S14.7761,11,14.5,11h-11C3.22386,11,3,10.77614,3,10.5S3.22386,10,3.5,10H14.5z M14.5,14
	c0.2761,0,0.5,0.2239,0.5,0.5S14.7761,15,14.5,15h-13C1.22386,15,1,14.7761,1,14.5S1.22386,14,1.5,14H14.5z"/>
        </symbol>
    </svg>

    <svg>
        <symbol id="alphabet_ru" viewBox="0 0 16 16">
            <path d="M2,0.5C2,0.2,2.2,0,2.5,0h2C4.8,0,5,0.2,5,0.5S4.8,1,4.5,1H3v14h1.5C4.8,15,5,15.2,5,15.5C5,15.8,4.8,16,4.5,16
	h-2C2.2,16,2,15.8,2,15.5C2,15.5,2,0.5,2,0.5z M10.5,10H13v3h-2.5C9.7,13,9,12.3,9,11.5C9,10.7,9.7,10,10.5,10z M13,9c0.6,0,1,0.4,1,1v5.5c0,0.3-0.2,0.5-0.5,0.5c-0.3,0-0.5-0.2-0.5-0.5V14l0,0h-2.5
	c-0.1,0-0.2,0-0.2,0l-1.4,1.8c-0.2,0.2-0.5,0.3-0.7,0.1c-0.2-0.2-0.3-0.5-0.1-0.7l1.2-1.5C8.5,13.2,8,12.4,8,11.5
	C8,10.1,9.1,9,10.5,9L13,9L13,9z M13,3v1H9V3c0-1.1,0.9-2,2-2
	C12.1,1,13,1.9,13,3z M9,5h4v1.5C13,6.8,13.2,7,13.5,7S14,6.8,14,6.5V3c0-1.7-1.3-3-3-3C9.3,0,8,1.3,8,3v3.5C8,6.8,8.2,7,8.5,7
	S9,6.8,9,6.5V5z"/>
        </symbol>
    </svg>

    <svg>
        <symbol id="alphabet_en" viewBox="0 0 16 16">
            <path d="M2 .5a.5.5 0 01.5-.5h2a.5.5 0 010 1h-1.5v14h1.5a.5.5 0 010 1h-2a.5.5 0 01-.5-.5v-15zm6 9a.5.5 0 01.5-.5h5a.5.5 0 01.408.792a.499.499 0 01-.031.04l-4.307 5.168h3.93a.5.5 0 010 1h-5a.5.5 0 01-.359-.848l4.294-5.152h-3.935a.5.5 0 01-.5-.5zm5-6.5v1h-4v-1a2 2 0 014 0zm-4 2h4v1.5a.5.5 0 001 0v-3.5a3 3 0 10-6 0v3.5a.5.5 0 001 0v-1.5z"/>
        </symbol>
    </svg>

    <svg>
        <symbol id="non_sort" viewBox="0 0 16 16">
            <path d="M9,4.5C9,3.67157,9.67157,3,10.5,3C11.3284,3,12,3.67157,12,4.5S11.3284,6,10.5,6C9.67157,6,9,5.32843,9,4.5z
	 M8.05001,4C8.28164,2.85888,9.29052,2,10.5,2c1.2095,0,2.2184,0.85888,2.45,2h1.55C14.7761,4,15,4.22386,15,4.5S14.7761,5,14.5,5
	h-1.55c-0.2316,1.14112-1.2405,2-2.45,2C9.29052,7,8.28164,6.14112,8.05001,5H1.5C1.22386,5,1,4.77614,1,4.5S1.22386,4,1.5,4
	H8.05001z M5.5,10C6.32843,10,7,10.67157,7,11.5C7,12.3284,6.32843,13,5.5,13S4,12.3284,4,11.5C4,10.67157,4.67157,10,5.5,10z
	 M5.5,9c1.20948,0,2.21836,0.85888,2.44999,2H14.5c0.2761,0,0.5,0.22386,0.5,0.5S14.7761,12,14.5,12H7.94999
	C7.71836,13.1411,6.70948,14,5.5,14s-2.21836-0.8589-2.44999-2H1.5C1.22386,12,1,11.77614,1,11.5S1.22386,11,1.5,11h1.55001
	C3.28164,9.85888,4.29052,9,5.5,9z"/>
        </symbol>
    </svg>

    <svg>
        <symbol id="time" viewBox="0 0 16 16">
            <path d="M8,16c-4.41138,0-8-3.5886-8-8.00002c0-4.41137,3.58862-8,8-8c4.4114,0,8,3.58863,8,8
	C16,12.4114,12.4114,16,8,16z M8,0.99998c-3.85999,0-7,3.14001-7,7C1,11.86,4.14001,15,8,15c3.86,0,7-3.14,7-7.00002
	C15,4.14,11.86,0.99998,8,0.99998z M7,3.49998c0-0.27614,0.22386-0.5,0.5-0.5s0.5,0.22386,0.5,0.5v4.5h3.5
	c0.2761,0,0.5,0.22386,0.5,0.5c0,0.27615-0.2239,0.5-0.5,0.5h-4c-0.27614,0-0.5-0.22385-0.5-0.5V3.49998z"/>
        </symbol>
    </svg>

    <svg>
        <symbol id="date" viewBox="0 0 16 16">
            <path d="M3.5 1a.5.5 0 0 0-.5.5V2H1.833C.822 2 0 2.785 0 3.75v10.5C0 15.215.822 16 1.833 16h12.334C15.178
	16 16 15.215 16 14.25V3.75C16 2.785 15.178 2 14.167 2H13v-.5a.5.5 0 0 0-1 0V2H4v-.5a.5.5 0 0 0-.5-.5zM12
	3.5v-.545H4V3.5a.5.5 0 0 1-1 0v-.545H1.833c-.459 0-.833.356-.833.795v10.5c0 .438.374.795.833.795h12.334c.459
	0 .833-.357.833-.795V3.75c0-.439-.374-.795-.833-.795H13V3.5a.5.5 0 0 1-1 0zM13.5 6h-11a.5.5 0 0 1 0-1h11a.5.5 0 0 1 0 1zM5
	9V8H3v1h2zm0 1v1H3v-1h2zm0 3v-1H3v1h2zm2-5h2v1H7V8zm2 2H7v1h2v-1zm-2 2h2v1H7v-1zm6-3V8h-2v1h2zm0 1v1h-2v-1h2zm0 3v-1h-2v1h2z"/>
        </symbol>
    </svg>

    <svg>
        <symbol id="debt" viewBox="0 0 16 16">
            <path d="M16 3a1 1 0 0 1-1 1h-2v10a2 2 0 0 1-2 2H2.5c-.667 0-1.318-.27-1.797-.75C.245 14.792 0 14.073 0 13.406V13a1 1 0 0 1
	1-1V2.406C1 1.74 1.042.958 1.5.5c.48-.48 1.333-.5 2-.5H14c.52 0 1.125.125 1.5.5s.5.885.5 1.406V3zm-5 12a1 1 0 0 0 1-1V1H3.39C3 .997
	2.662.995 2.376 1.28 2.062 1.594 2 1.97 2 2.406V12h7.594c.224 0 .406.182.406.406V14a1 1 0 0 0 1 1zm-2-2v1c0 .364.097.706.268
	1H2.5c-.438 0-.813-.156-1.125-.469C1.062 14.22 1 13.844 1 13.406V13h8zm5-12h-1v2h2V1.906c0-.5-.406-.906-.906-.906H14zM4 3.5a.5.5
	0 0 1 .5-.5h5a.5.5 0 0 1 0 1h-5a.5.5 0 0 1-.5-.5zm0 3a.5.5 0 0 1 .5-.5h5a.5.5 0 0 1 0 1h-5a.5.5 0 0 1-.5-.5zM4.5 9a.5.5 0 0 0 0
	1h5a.5.5 0 0 0 0-1h-5z"/>
        </symbol>
    </svg>

    <svg>
        <symbol id="deflection" viewBox="0 0 16 16">
            <path d="M7.97307,0.99997c-0.17872,0-0.34377,0.09523-0.43314,0.25001L1.03986,14.24996
	c-0.08938,0.1548-0.08938,0.3452,0,0.5c0.08937,0.1548,0.25442,0.25,0.43314,0.25h12.99962c0.1788,0,0.3438-0.0952,0.4332-0.25
	c0.0893-0.1548,0.0893-0.3452,0-0.5L8.40625,1.24997C8.31687,1.09517,8.15182,0.99997,7.97307,0.99997z M2.3388,13.99996
	l5.6343-11.4994l5.63373,11.4994H2.3388z"/>
        </symbol>
    </svg>

    <svg>
        <symbol id="number" viewBox="0 0 16 16">
            <path d="M2.5 0a.5.5 0 0 0-.5.5v15a.5.5 0 0 0 .5.5h2a.5.5 0 0 0 0-1H3V1h1.5a.5.5 0 0 0 0-1h-2zM9 10.5a.5.5 0 0 1 .5-.5h3a.5.5
	0 0 1 .5.5V12H9.5a.5.5 0 0 1-.5-.5v-1zM12.5 9a1.5 1.5 0 0 1 1.5 1.5v4c0 1-.5 1.5-1.5 1.5h-4a.5.5 0 0 1 0-1h4a.5.5 0 0 0 .5-.5V13H9.5A1.5
	1.5 0 0 1 8 11.5v-1A1.5 1.5 0 0 1 9.5 9h3zM12 .5a.5.5 0 0 0-.5-.5h-2a.5.5 0 0 0 0 1H11v5H9.5a.5.5 0 0 0 0 1h4a.5.5 0 0 0 0-1H12V.5z"/>
        </symbol>
    </svg>

    <svg>
        <symbol id="partner" viewBox="0 0 16 16">
            <path d="M12.6 10.8l-2.2-.5c-.6-.1-.4-1-.4-1 .1-.3.7-1.4.8-1.4.4-.4.9-1 1-1.7.1-.6 0-1-.1-1.3 0-.5 0-1.5-.2-2.2
	0-.8-.2-1.3-.5-1.7C10.7.7 9.8.5 9.7.5 9.2.2 8.6 0 8 0 6.7.1 5 .9 4.5 2.6c-.2.4-.2 2.3-.2 2.3-.1.2-.2.6-.1 1.2.1.7.6 1.3
	1 1.7.1.1.7 1.2.8 1.5 0 0 .2 1-.4 1.1l-2.2.5c-1.4.2-2.4 1.5-2.4 3v1c0 .6.4 1.1 1 1.1h12c.6 0 1-.5 1-1.1v-1c0-1.5-1-2.8-2.4-3.1zM14
	15H2v-1.1c0-1 .7-1.9 1.6-2.1l2.2-.5c.7-.1 1.2-.8 1.2-1.5v-.7c-.1-.4-.4-.9-.5-1.1-.2-.4-.4-.8-.6-.9-.3-.4-.6-.8-.7-1.2-.1-.4.2-.7.2-1
	0 0 0-1.6.1-1.9C5.8 1.8 7 1 8 1c.5 0 .8.1 1.2.4 1.3.1 1.2.7 1.3 1.5.1.5.2 1.5.1 1.9 0 .3.3.6.2 1-.1.4-.4.8-.7
	1.2-.2.2-.4.6-.6 1-.1.2-.5.8-.5 1.1v.7c0 .8.5 1.4 1.2 1.5l2.2.5c.9.2 1.6 1.1 1.6 2.1V15z"/>
        </symbol>
    </svg>

    <svg>
        <symbol id="recall" viewBox="0 0 16 16">
            <path d="M11.04891,2.49438c-1.01473,0-2.26169,0.89799-2.9999,1.59937C7.3107,3.39237,6.06374,2.49438,5.04891,2.49438
	c-2.10009,0-3.5,1.64309-3.5,3.74068c0,2.45164,2.82947,5.15034,6.24778,8.16954C7.86867,14.4682,7.95879,14.5,8.04891,14.5
	c0.09016,0,0.18031-0.0318,0.25242-0.0955c3.41808-3.0193,6.24758-5.718,6.24758-8.16944
	C14.54891,4.13747,13.14901,2.49438,11.04891,2.49438z"/>
        </symbol>
    </svg>

    <svg>
        <symbol id="problem" viewBox="0 0 16 16">
            <path d="M8,15c3.866,0,7-3.134,7-7c0-3.86599-3.134-7-7-7C4.13401,1,1,4.13401,1,8C1,11.866,4.13401,15,8,15z M8,16
	c4.4183,0,8-3.5817,8-8c0-4.41828-3.5817-8-8-8C3.58172,0,0,3.58172,0,8C0,12.4183,3.58172,16,8,16z M7,4c0-0.55228,0.44772-1,1-1
	c0.55229,0,1,0.44772,1,1v5c0,0.55228-0.44771,1-1,1c-0.55228,0-1-0.44772-1-1V4z M8,13c0.55229,0,1-0.4477,1-1s-0.44771-1-1-1
	c-0.55228,0-1,0.4477-1,1S7.44772,13,8,13z"/>
        </symbol>
    </svg>

    <svg>
        <symbol id="rating" viewBox="0 0 16 16">
            <path d="M15.49 6.803c-.114-.342-.453-.576-.93-.644l-3.891-.55-1.74-3.433c-.213-.422-.547-.663-.915-.663-.369 0-.702.241-.916.662L5.358
	5.61l-3.89.55c-.477.068-.816.302-.93.644-.114.341.019.725.364 1.053l2.815 2.672-.664 3.774c-.085.483.06.772.196.93.16.184.394.286.657.286.2
	0 .41-.056.628-.168l3.48-1.782 3.48 1.782c.217.112.429.168.627.168h0a.852.852 0 0 0 .657-.287c.137-.157.282-.446.197-.93l-.665-3.773
	2.815-2.672c.345-.328.478-.712.364-1.053z"/>
        </symbol>
    </svg>

    <svg>
        <symbol id="timing" viewBox="0 0 16 16">
            <path d="M2.5 1H3v2.515c0 1.085.462 2.124 1.269 2.85.548.493.941.712 1.193.852.118.065.205.114.262.165a.82.82
	0 0 1 .276.62.82.82 0 0 1-.276.619c-.057.05-.144.099-.261.164-.252.14-.645.357-1.194.85A3.836 3.836 0 0 0 3
	12.486V15h-.5a.5.5 0 0 0 0 1h11a.5.5 0 0 0 0-1H13v-2.515a3.841 3.841 0 0 0-1.269-2.85 5.85 5.85 0 0 0-1.193-.852 1.522 1.522
	0 0 1-.262-.164.82.82 0 0 1-.276-.62c0-.24.097-.459.276-.619.057-.051.144-.1.261-.164.252-.14.645-.358 1.194-.852A3.836 3.836
	0 0 0 13 3.515V1h.5a.5.5 0 0 0 0-1h-11a.5.5 0 0 0 0 1zM12 1H4v2.515c0 .802.342 1.57.938 2.106l1.455 1.016C6.78 6.985 7 7.481 7
	8s-.221 1.015-.607 1.363a3.397 3.397 0 0 1-.57.39c-.262.154-.555.327-.885.625A2.842 2.842 0 0 0 4.042 12h7.916a2.837 2.837
	0 0 0-.896-1.62 5.077 5.077 0 0 0-.883-.625c-.21-.124-.4-.237-.572-.392A1.838 1.838 0 0 1 9
	8.001c0-.519.221-1.016.607-1.363.171-.155.36-.267.57-.391.262-.154.555-.327.885-.625A2.84 2.84 0 0 0 12 3.515V1zM4 15v-1h1v1H4zm2
	0h1v-1h1v1h1v-1h1v1h1v-1h1v-1h-1v1h-1v-1H9v1H8v-1H7v1H6v-1H5v1h1v1z"/>
        </symbol>
    </svg>

    <svg>
        <symbol id="sum" viewBox="0 0 16 16">
            <path d="M12.49999,15H3.50002c-0.18847,0-0.36084-0.1059-0.44581-0.2739c-0.08545-0.168-0.06884-0.3697,0.04248-0.522
	L8,8L3.09669,1.79589c-0.11132-0.15234-0.12794-0.354-0.04248-0.52197C3.13917,1.10594,3.31151,1,3.50002,1h9.00001
	C12.77639,1,13,1.22362,13,1.50002v2.00001c0,0.27614-0.22381,0.5-0.49996,0.5l0,0c-0.27614,0-0.5-0.22386-0.5-0.5V2H4.48682
	l4.53664,5.70409c0.12891,0.17628,0.12891,0.41554,0,0.59179L4.48682,14h7.51319v-1.5c0-0.2761,0.22386-0.5,0.5-0.5l0,0
	C12.77615,12,13,12.2239,13,12.5v2C13,14.7763,12.77639,15,12.49999,15z"/>
        </symbol>
    </svg>

    <svg>
        <symbol id="price" viewBox="0 0 16 16">
            <path d="M15,8c0,3.866-3.134,7-7,7c-3.86599,0-7-3.134-7-7c0-3.86599,3.13401-7,7-7C11.866,1,15,4.13401,15,8z M16,8
	c0,4.4183-3.5817,8-8,8c-4.41828,0-8-3.5817-8-8c0-4.41828,3.58172-8,8-8C12.4183,0,16,3.58172,16,8z M7,5v0.5V8h1.5
	C9.32843,8,10,7.32843,10,6.5S9.32843,5,8.5,5H7z M7,9h1.5C9.88071,9,11,7.88071,11,6.5S9.88071,4,8.5,4h-2
	C6.22386,4,6,4.22386,6,4.5v1V8H5.5C5.22386,8,5,8.22386,5,8.5S5.22386,9,5.5,9H6v1H5.5C5.22386,10,5,10.2239,5,10.5
	S5.22386,11,5.5,11H6v1.5C6,12.7761,6.22386,13,6.5,13S7,12.7761,7,12.5V11h1.5C8.77614,11,9,10.7761,9,10.5S8.77614,10,8.5,10H7V9z"/>
        </symbol>
    </svg>
    <!-- Стрелка -->
    <svg>
        <symbol id="arrow" viewBox="0 0 16 16">
            <path d="M7.99731,15.4998c0,0.276,0.22387,0.4998,0.50002,0.4998c0.27615,0,0.50002-0.2238,0.50002-0.4998V1.66763
	l2.15278,2.18607c0.1983,0.1919,0.51455,0.18664,0.70635-0.01176c0.19181-0.1984,0.18655-0.5148-0.01176-0.70671L8.85591,0.1401
	C8.74398,0.03179,8.59447-0.01372,8.45097,0.00288c-0.11293,0.00808-0.22376,0.05436-0.3115,0.1392l-2.99021,2.9935
	c-0.19839,0.1918-0.20365,0.50805-0.01175,0.70636c0.19191,0.1983,0.5083,0.20357,0.70669,0.01176l2.15311-2.18418
	C7.99731,1.66952,7.99731,15.4998,7.99731,15.4998z"/>
        </symbol>
    </svg>
    <svg>
        <symbol id="arrow_ASC" viewBox="0 0 16 16">
            <path d="M12 7l-3-.75v8.25h-2v-8.25l-3 .75 4-5z"/>
        </symbol>
    </svg>
    <svg>
        <symbol id="arrow_DESC" viewBox="0 0 16 16">
            <path transform="rotate(180, 8, 8)" d="M12 7l-3-.75v8.25h-2v-8.25l-3 .75 4-5z"/>
        </symbol>
    </svg>

    <!-- без сортировки -->
    <svg>
        <symbol id="non_sort_" viewBox="0 0 32 16">
            <path d="M17 4.5c0-.8284.6716-1.5 1.5-1.5c.8284 0 1.5.6716 1.5 1.5s-.6716 1.5-1.5 1.5c-.8284 0-1.5-.6716-1.5-1.5zm-.95-.5c.2316-1.1411 1.2405-2 2.45-2c1.2095 0 2.2184.8589 2.45 2h1.55c.2761 0 .5.2239.5.5s-.2239.5-.5.5h-1.55c-.2316 1.1411-1.2405 2-2.45 2c-1.2095 0-2.2184-.8589-2.45-2h-6.55c-.2761 0-.5-.2239-.5-.5s.2239-.5.5-.5h6.55zm-2.55 6c.8284 0 1.5.6716 1.5 1.5c0 .8284-.6716 1.5-1.5 1.5s-1.5-.6716-1.5-1.5c0-.8284.6716-1.5 1.5-1.5zm0-1c1.2095 0 2.2184.8589 2.45 2h6.55c.2761 0 .5.2239.5.5s-.2239.5-.5.5h-6.55c-.2316 1.1411-1.2405 2-2.45 2s-2.2184-.8589-2.45-2h-1.55c-.2761 0-.5-.2239-.5-.5s.2239-.5.5-.5h1.55c.2316-1.1411 1.2405-2 2.45-2z"/>
        </symbol>
    </svg>
    <!-- иконки со стрелками вверх-->
    <svg>
        <symbol id="difficult_sort_ASC" viewBox="0 0 32 16">
            <path d="M18.5 2c.2761 0 .5.2239.5.5s-.2239.5-.5.5h-7c-.2761 0-.5-.2239-.5-.5s.2239-.5.5-.5h7zm.5 4.5c0-.2761-.2239-.5-.5-.5h-9c-.2761 0-.5.2239-.5.5s.2239.5.5.5h9c.2761 0 .5-.2239.5-.5zm-.5 3.5c.2761 0 .5.2239.5.5s-.2239.5-.5.5h-11c-.2761 0-.5-.2239-.5-.5s.2239-.5.5-.5h11zm0 4c.2761 0 .5.2239.5.5s-.2239.5-.5.5h-13c-.2761 0-.5-.2239-.5-.5s.2239-.5.5-.5h13z"/>
            <path d="M24 15.4998c0 .276.2239.4998.5.4998c.2762 0 .5-.2238.5-.4998v-13.8322l2.1528 2.1861c.1983.1919.5145.1866.7064-.0118c.1918-.1984.1865-.5148-.0118-.7067l-2.9915-2.9951c-.1119-.1083-.2614-.1538-.4049-.1372c-.1129.0081-.2238.0544-.3115.1392l-2.9902 2.9935c-.1984.1918-.2036.5081-.0118.7064c.1919.1983.5083.2036.7067.0118l2.1531-2.1842c0-0 0 13.8303 0 13.8303z"/>
        </symbol>
    </svg>

    <svg>
        <symbol id="alphabet_ru_ASC" viewBox="0 0 32 16">
            <path d="M6 .5c0-.3.2-.5.5-.5h2c.3 0 .5.2.5.5s-.2.5-.5.5h-1.5v14h1.5c.3 0 .5.2.5.5c0 .3-.2.5-.5.5h-2c-.3 0-.5-.2-.5-.5c0 0 0-15 0-15zm11 8.5c.6 0 1 .4 1 1v5.5c0 .3-.2.5-.5.5c-.3 0-.5-.2-.5-.5v-1.5l0 0h-2.5c-.1 0-.2 0-.2 0l-1.4 1.8c-.2.2-.5.3-.7.1c-.2-.2-.3-.5-.1-.7l1.2-1.5c-.8-.5-1.3-1.3-1.3-2.2c0-1.4 1.1-2.5 2.5-2.5l2.5 0 0 0zm-2.5 1h2.5v3h-2.5c-.8 0-1.5-.7-1.5-1.5c0-.8.7-1.5 1.5-1.5zm2.5-7v1h-4v-1c0-1.1.9-2 2-2c1.1 0 2 .9 2 2zm-4 2h4v1.5c0 .3.2.5.5.5s.5-.2.5-.5v-3.5c0-1.7-1.3-3-3-3c-1.7 0-3 1.3-3 3v3.5c0 .3.2.5.5.5s.5-.2.5-.5v-1.5z"/>
            <path d="M24 15.4998c0 .276.2239.4998.5.4998c.2762 0 .5-.2238.5-.4998v-13.8322l2.1528 2.1861c.1983.1919.5145.1866.7064-.0118c.1918-.1984.1865-.5148-.0118-.7067l-2.9915-2.9951c-.1119-.1083-.2614-.1538-.4049-.1372c-.1129.0081-.2238.0544-.3115.1392l-2.9902 2.9935c-.1984.1918-.2036.5081-.0118.7064c.1919.1983.5083.2036.7067.0118l2.1531-2.1842c0-0 0 13.8303 0 13.8303z"/>
        </symbol>
    </svg>

    <svg>
        <symbol id="alphabet_en_ASC" viewBox="0 0 32 16">
            <path d="M6 .5a.5.5 0 01.5-.5h2a.5.5 0 010 1h-1.5v14h1.5a.5.5 0 010 1h-2a.5.5 0 01-.5-.5v-15zm6 9a.5.5 0 01.5-.5h5a.5.5 0 01.408.792a.499.499 0 01-.031.04l-4.307 5.168h3.93a.5.5 0 010 1h-5a.5.5 0 01-.359-.848l4.294-5.152h-3.935a.5.5 0 01-.5-.5zm5-6.5v1h-4v-1a2 2 0 014 0zm-4 2h4v1.5a.5.5 0 001 0v-3.5a3 3 0 10-6 0v3.5a.5.5 0 001 0v-1.5z"/>
            <path d="M24 15.4998c0 .276.2239.4998.5.4998c.2762 0 .5-.2238.5-.4998v-13.8322l2.1528 2.1861c.1983.1919.5145.1866.7064-.0118c.1918-.1984.1865-.5148-.0118-.7067l-2.9915-2.9951c-.1119-.1083-.2614-.1538-.4049-.1372c-.1129.0081-.2238.0544-.3115.1392l-2.9902 2.9935c-.1984.1918-.2036.5081-.0118.7064c.1919.1983.5083.2036.7067.0118l2.1531-2.1842c0-0 0 13.8303 0 13.8303z"/>
        </symbol>
    </svg>

    <svg>
        <symbol id="time_ASC" viewBox="0 0 32 16">
            <path d="M12 16c-4.4114 0-8-3.5886-8-8c0-4.4114 3.5886-8 8-8c4.4114 0 8 3.5886 8 8c0 4.4114-3.5886 8-8 8zm0-15c-3.86 0-7 3.14-7 7c0 3.86 3.14 7 7 7c3.86 0 7-3.14 7-7c0-3.86-3.14-7-7-7zm-1 2.5c0-.2761.2239-.5.5-.5s.5.2239.5.5v4.5h3.5c.2761 0 .5.2239.5.5c0 .2762-.2239.5-.5.5h-4c-.2761 0-.5-.2238-.5-.5v-5z"/>
            <path d="M24 15.4998c0 .276.2239.4998.5.4998c.2762 0 .5-.2238.5-.4998v-13.8322l2.1528 2.1861c.1983.1919.5145.1866.7064-.0118c.1918-.1984.1865-.5148-.0118-.7067l-2.9915-2.9951c-.1119-.1083-.2614-.1538-.4049-.1372c-.1129.0081-.2238.0544-.3115.1392l-2.9902 2.9935c-.1984.1918-.2036.5081-.0118.7064c.1919.1983.5083.2036.7067.0118l2.1531-2.1842c0-0 0 13.8303 0 13.8303z"/>
        </symbol>
    </svg>

    <svg>
        <symbol id="date_ASC" viewBox="0 0 32 16">
            <path d="M7.5 1a.5.5 0 00-.5.5v.5h-1.167c-1.011 0-1.833.785-1.833 1.75v10.5c0 .965.822 1.75 1.833 1.75h12.334c1.011 0 1.833-.785 1.833-1.75v-10.5c0-.965-.822-1.75-1.833-1.75h-1.167v-.5a.5.5 0 00-1 0v.5h-8v-.5a.5.5 0 00-.5-.5zm8.5 2.5v-.545h-8v.545a.5.5 0 01-1 0v-.545h-1.167c-.459 0-.833.356-.833.795v10.5c0 .438.374.795.833.795h12.334c.459 0 .833-.357.833-.795v-10.5c0-.439-.374-.795-.833-.795h-1.167v.545a.5.5 0 01-1 0zm1.5 2.5h-11a.5.5 0 010-1h11a.5.5 0 010 1zm-8.5 3v-1h-2v1h2zm0 1v1h-2v-1h2zm0 3v-1h-2v1h2zm2-5h2v1h-2v-1zm2 2h-2v1h2v-1zm-2 2h2v1h-2v-1zm6-3v-1h-2v1h2zm0 1v1h-2v-1h2zm0 3v-1h-2v1h2z"/>
            <path d="M24 15.4998c0 .276.2239.4998.5.4998c.2762 0 .5-.2238.5-.4998v-13.8322l2.1528 2.1861c.1983.1919.5145.1866.7064-.0118c.1918-.1984.1865-.5148-.0118-.7067l-2.9915-2.9951c-.1119-.1083-.2614-.1538-.4049-.1372c-.1129.0081-.2238.0544-.3115.1392l-2.9902 2.9935c-.1984.1918-.2036.5081-.0118.7064c.1919.1983.5083.2036.7067.0118l2.1531-2.1842c0-0 0 13.8303 0 13.8303z"/>
        </symbol>
    </svg>

    <svg>
        <symbol id="debt_ASC" viewBox="0 0 32 16">
            <path d="M20 3a1 1 0 01-1 1h-2v10a2 2 0 01-2 2h-8.5c-.667 0-1.318-.27-1.797-.75c-.458-.458-.703-1.177-.703-1.844v-.406a1 1 0 011-1v-9.594c0-.666.042-1.448.5-1.906c.48-.48 1.333-.5 2-.5h10.5c.52 0 1.125.125 1.5.5s.5.885.5 1.406v1.094zm-5 12a1 1 0 001-1v-13h-8.61c-.39-.003-.728-.005-1.014.28c-.314.314-.376.69-.376 1.126v9.594h7.594c.224 0 .406.182.406.406v1.594a1 1 0 001 1zm-2-2v1c0 .364.097.706.268 1h-6.768c-.438 0-.813-.156-1.125-.469c-.313-.311-.375-.687-.375-1.125v-.406h8zm5-12h-1v2h2v-1.094c0-.5-.406-.906-.906-.906h-.094zm-10 2.5a.5.5 0 01.5-.5h5a.5.5 0 010 1h-5a.5.5 0 01-.5-.5zm0 3a.5.5 0 01.5-.5h5a.5.5 0 010 1h-5a.5.5 0 01-.5-.5zm.5 2.5a.5.5 0 000 1h5a.5.5 0 000-1h-5z"/>
            <path d="M24 15.4998c0 .276.2239.4998.5.4998c.2762 0 .5-.2238.5-.4998v-13.8322l2.1528 2.1861c.1983.1919.5145.1866.7064-.0118c.1918-.1984.1865-.5148-.0118-.7067l-2.9915-2.9951c-.1119-.1083-.2614-.1538-.4049-.1372c-.1129.0081-.2238.0544-.3115.1392l-2.9902 2.9935c-.1984.1918-.2036.5081-.0118.7064c.1919.1983.5083.2036.7067.0118l2.1531-2.1842c0-0 0 13.8303 0 13.8303z"/>
        </symbol>
    </svg>

    <svg>
        <symbol id="deflection_ASC" viewBox="0 0 32 16">
            <path d="M11.9731 1c-.1787 0-.3438.0952-.4331.25l-6.5001 13c-.0894.1548-.0894.3452 0 .5c.0894.1548.2544.25.4331.25h12.9996c.1788 0 .3438-.0952.4332-.25c.0893-.1548.0893-.3452 0-.5l-6.4996-13c-.0894-.1548-.2544-.25-.4332-.25zm-5.6343 13 5.6343-11.4994 5.6337 11.4994h-11.268z"/>
            <path d="M24 15.4998c0 .276.2239.4998.5.4998c.2762 0 .5-.2238.5-.4998v-13.8322l2.1528 2.1861c.1983.1919.5145.1866.7064-.0118c.1918-.1984.1865-.5148-.0118-.7067l-2.9915-2.9951c-.1119-.1083-.2614-.1538-.4049-.1372c-.1129.0081-.2238.0544-.3115.1392l-2.9902 2.9935c-.1984.1918-.2036.5081-.0118.7064c.1919.1983.5083.2036.7067.0118l2.1531-2.1842c0-0 0 13.8303 0 13.8303z"/>
        </symbol>
    </svg>

    <svg>
        <symbol id="number_ASC" viewBox="0 0 32 16">
            <path d="M6.5 0a.5.5 0 00-.5.5v15a.5.5 0 00.5.5h2a.5.5 0 000-1h-1.5v-14h1.5a.5.5 0 000-1h-2zm6.5 10.5a.5.5 0 01.5-.5h3a.5.5 0 01.5.5v1.5h-3.5a.5.5 0 01-.5-.5v-1zm3.5-1.5a1.5 1.5 0 011.5 1.5v4c0 1-.5 1.5-1.5 1.5h-4a.5.5 0 010-1h4a.5.5 0 00.5-.5v-1.5h-3.5a1.5 1.5 0 01-1.5-1.5v-1a1.5 1.5 0 011.5-1.5h3zm-.5-8.5a.5.5 0 00-.5-.5h-2a.5.5 0 000 1h1.5v5h-1.5a.5.5 0 000 1h4a.5.5 0 000-1h-1.5v-5.5z"/>
            <path d="M24 15.4998c0 .276.2239.4998.5.4998c.2762 0 .5-.2238.5-.4998v-13.8322l2.1528 2.1861c.1983.1919.5145.1866.7064-.0118c.1918-.1984.1865-.5148-.0118-.7067l-2.9915-2.9951c-.1119-.1083-.2614-.1538-.4049-.1372c-.1129.0081-.2238.0544-.3115.1392l-2.9902 2.9935c-.1984.1918-.2036.5081-.0118.7064c.1919.1983.5083.2036.7067.0118l2.1531-2.1842c0-0 0 13.8303 0 13.8303z"/>
        </symbol>
    </svg>

    <svg>
        <symbol id="partner_ASC" viewBox="0 0 32 16">
            <path d="M16.6 10.8l-2.2-.5c-.6-.1-.4-1-.4-1c.1-.3.7-1.4.8-1.4c.4-.4.9-1 1-1.7c.1-.6 0-1-.1-1.3c0-.5 0-1.5-.2-2.2c0-.8-.2-1.3-.5-1.7c-.3-.3-1.2-.5-1.3-.5c-.5-.3-1.1-.5-1.7-.5c-1.3.1-3 .9-3.5 2.6c-.2.4-.2 2.3-.2 2.3c-.1.2-.2.6-.1 1.2c.1.7.6 1.3 1 1.7c.1.1.7 1.2.8 1.5c0 0 .2 1-.4 1.1l-2.2.5c-1.4.2-2.4 1.5-2.4 3v1c0 .6.4 1.1 1 1.1h12c.6 0 1-.5 1-1.1v-1c0-1.5-1-2.8-2.4-3.1zm1.4 4.2h-12v-1.1c0-1 .7-1.9 1.6-2.1l2.2-.5c.7-.1 1.2-.8 1.2-1.5v-.7c-.1-.4-.4-.9-.5-1.1c-.2-.4-.4-.8-.6-.9c-.3-.4-.6-.8-.7-1.2c-.1-.4.2-.7.2-1c0 0 0-1.6.1-1.9c.3-1.2 1.5-2 2.5-2c.5 0 .8.1 1.2.4c1.3.1 1.2.7 1.3 1.5c.1.5.2 1.5.1 1.9c0 .3.3.6.2 1c-.1.4-.4.8-.7 1.2c-.2.2-.4.6-.6 1c-.1.2-.5.8-.5 1.1v.7c0 .8.5 1.4 1.2 1.5l2.2.5c.9.2 1.6 1.1 1.6 2.1v1.1z"/>
            <path d="M24 15.4998c0 .276.2239.4998.5.4998c.2762 0 .5-.2238.5-.4998v-13.8322l2.1528 2.1861c.1983.1919.5145.1866.7064-.0118c.1918-.1984.1865-.5148-.0118-.7067l-2.9915-2.9951c-.1119-.1083-.2614-.1538-.4049-.1372c-.1129.0081-.2238.0544-.3115.1392l-2.9902 2.9935c-.1984.1918-.2036.5081-.0118.7064c.1919.1983.5083.2036.7067.0118l2.1531-2.1842c0-0 0 13.8303 0 13.8303z"/>
        </symbol>
    </svg>

    <svg>
        <symbol id="recall_ASC" viewBox="0 0 32 16">
            <path d="M15.0489 2.4944c-1.0147 0-2.2617.898-2.9999 1.5994c-.7383-.7014-1.9853-1.5994-3.0001-1.5994c-2.1001 0-3.5 1.6431-3.5 3.7407c0 2.4516 2.8295 5.1503 6.2478 8.1695c.072.0636.1621.0954.2522.0954c.0902 0 .1803-.0318.2524-.0955c3.4181-3.0193 6.2476-5.718 6.2476-8.1694c0-2.0976-1.3999-3.7407-3.5-3.7407z"/>
            <path d="M24 15.4998c0 .276.2239.4998.5.4998c.2762 0 .5-.2238.5-.4998v-13.8322l2.1528 2.1861c.1983.1919.5145.1866.7064-.0118c.1918-.1984.1865-.5148-.0118-.7067l-2.9915-2.9951c-.1119-.1083-.2614-.1538-.4049-.1372c-.1129.0081-.2238.0544-.3115.1392l-2.9902 2.9935c-.1984.1918-.2036.5081-.0118.7064c.1919.1983.5083.2036.7067.0118l2.1531-2.1842c0-0 0 13.8303 0 13.8303z"/>
        </symbol>
    </svg>

    <svg>
        <symbol id="problem_ASC" viewBox="0 0 32 16">
            <path d="M12 15c3.866 0 7-3.134 7-7c0-3.866-3.134-7-7-7c-3.866 0-7 3.134-7 7c0 3.866 3.134 7 7 7zm0 1c4.4183 0 8-3.5817 8-8c0-4.4183-3.5817-8-8-8c-4.4183 0-8 3.5817-8 8c0 4.4183 3.5817 8 8 8zm-1-12c0-.5523.4477-1 1-1c.5523 0 1 .4477 1 1v5c0 .5523-.4477 1-1 1c-.5523 0-1-.4477-1-1v-5zm1 9c.5523 0 1-.4477 1-1s-.4477-1-1-1c-.5523 0-1 .4477-1 1s.4477 1 1 1z"/>
            <path d="M24 15.4998c0 .276.2239.4998.5.4998c.2762 0 .5-.2238.5-.4998v-13.8322l2.1528 2.1861c.1983.1919.5145.1866.7064-.0118c.1918-.1984.1865-.5148-.0118-.7067l-2.9915-2.9951c-.1119-.1083-.2614-.1538-.4049-.1372c-.1129.0081-.2238.0544-.3115.1392l-2.9902 2.9935c-.1984.1918-.2036.5081-.0118.7064c.1919.1983.5083.2036.7067.0118l2.1531-2.1842c0-0 0 13.8303 0 13.8303z"/>
        </symbol>
    </svg>

    <svg>
        <symbol id="rating_ASC" viewBox="0 0 32 16">
            <path d="M19.49 6.803c-.114-.342-.453-.576-.93-.644l-3.891-.55-1.74-3.433c-.213-.422-.547-.663-.915-.663c-.369 0-.702.241-.916.662l-1.74 3.435-3.89.55c-.477.068-.816.302-.93.644c-.114.341.019.725.364 1.053l2.815 2.672-.664 3.774c-.085.483.06.772.196.93c.16.184.394.286.657.286c.2 0 .41-.056.628-.168l3.48-1.782 3.48 1.782c.217.112.429.168.627.168h0a.852.852 0 00.657-.287c.137-.157.282-.446.197-.93l-.665-3.773 2.815-2.672c.345-.328.478-.712.364-1.053z"/>
            <path d="M24 15.4998c0 .276.2239.4998.5.4998c.2762 0 .5-.2238.5-.4998v-13.8322l2.1528 2.1861c.1983.1919.5145.1866.7064-.0118c.1918-.1984.1865-.5148-.0118-.7067l-2.9915-2.9951c-.1119-.1083-.2614-.1538-.4049-.1372c-.1129.0081-.2238.0544-.3115.1392l-2.9902 2.9935c-.1984.1918-.2036.5081-.0118.7064c.1919.1983.5083.2036.7067.0118l2.1531-2.1842c0-0 0 13.8303 0 13.8303z"/>
        </symbol>
    </svg>

    <svg>
        <symbol id="timing_ASC" viewBox="0 0 32 16">
            <path d="M6.5 1h.5v2.515c0 1.085.462 2.124 1.269 2.85c.548.493.941.712 1.193.852c.118.065.205.114.262.165a.82.82 0 01.276.62a.82.82 0 01-.276.619c-.057.05-.144.099-.261.164c-.252.14-.645.357-1.194.85a3.836 3.836 0 00-1.269 2.851v2.514h-.5a.5.5 0 000 1h11a.5.5 0 000-1h-.5v-2.515a3.841 3.841 0 00-1.269-2.85a5.85 5.85 0 00-1.193-.852a1.522 1.522 0 01-.262-.164a.82.82 0 01-.276-.62c0-.24.097-.459.276-.619c.057-.051.144-.1.261-.164c.252-.14.645-.358 1.194-.852a3.836 3.836 0 001.269-2.849v-2.515h.5a.5.5 0 000-1h-11a.5.5 0 000 1zm9.5 0h-8v2.515c0 .802.342 1.57.938 2.106l1.455 1.016c.387.348.607.844.607 1.363s-.221 1.015-.607 1.363a3.397 3.397 0 01-.57.39c-.262.154-.555.327-.885.625a2.842 2.842 0 00-.896 1.622h7.916a2.837 2.837 0 00-.896-1.62a5.077 5.077 0 00-.883-.625c-.21-.124-.4-.237-.572-.392a1.838 1.838 0 01-.607-1.362c0-.519.221-1.016.607-1.363c.171-.155.36-.267.57-.391c.262-.154.555-.327.885-.625a2.84 2.84 0 00.938-2.107v-2.515zm-8 14v-1h1v1h-1zm2 0h1v-1h1v1h1v-1h1v1h1v-1h1v-1h-1v1h-1v-1h-1v1h-1v-1h-1v1h-1v-1h-1v1h1v1z"/>
            <path d="M24 15.4998c0 .276.2239.4998.5.4998c.2762 0 .5-.2238.5-.4998v-13.8322l2.1528 2.1861c.1983.1919.5145.1866.7064-.0118c.1918-.1984.1865-.5148-.0118-.7067l-2.9915-2.9951c-.1119-.1083-.2614-.1538-.4049-.1372c-.1129.0081-.2238.0544-.3115.1392l-2.9902 2.9935c-.1984.1918-.2036.5081-.0118.7064c.1919.1983.5083.2036.7067.0118l2.1531-2.1842c0-0 0 13.8303 0 13.8303z"/>
        </symbol>
    </svg>

    <svg>
        <symbol id="sum_ASC" viewBox="0 0 32 16">
            <path d="M16.5 15h-9c-.1885 0-.3608-.1059-.4458-.2739c-.0854-.168-.0688-.3697.0425-.522l4.9033-6.2041-4.9033-6.2041c-.1113-.1523-.1279-.354-.0425-.522c.085-.168.2573-.2739.4458-.2739h9c.2764 0 .5.2236.5.5v2c0 .2761-.2238.5-.5.5l0 0c-.2761 0-.5-.2239-.5-.5v-1.5h-7.5132l4.5366 5.7041c.1289.1763.1289.4155 0 .5918l-4.5366 5.7041h7.5132v-1.5c0-.2761.2239-.5.5-.5l0 0c.2761 0 .5.2239.5.5v2c0 .2763-.2236.5-.5.5z"/>
            <path d="M24 15.4998c0 .276.2239.4998.5.4998c.2762 0 .5-.2238.5-.4998v-13.8322l2.1528 2.1861c.1983.1919.5145.1866.7064-.0118c.1918-.1984.1865-.5148-.0118-.7067l-2.9915-2.9951c-.1119-.1083-.2614-.1538-.4049-.1372c-.1129.0081-.2238.0544-.3115.1392l-2.9902 2.9935c-.1984.1918-.2036.5081-.0118.7064c.1919.1983.5083.2036.7067.0118l2.1531-2.1842c0-0 0 13.8303 0 13.8303z"/>
        </symbol>
    </svg>

    <svg>
        <symbol id="price_ASC" viewBox="0 0 32 16">
            <path d="M19 8c0 3.866-3.134 7-7 7c-3.866 0-7-3.134-7-7c0-3.866 3.134-7 7-7c3.866 0 7 3.134 7 7zm1 0c0 4.4183-3.5817 8-8 8c-4.4183 0-8-3.5817-8-8c0-4.4183 3.5817-8 8-8c4.4183 0 8 3.5817 8 8zm-9-3v.5v2.5h1.5c.8284 0 1.5-.6716 1.5-1.5s-.6716-1.5-1.5-1.5h-1.5zm0 4h1.5c1.3807 0 2.5-1.1193 2.5-2.5s-1.1193-2.5-2.5-2.5h-2c-.2761 0-.5.2239-.5.5v1v2.5h-.5c-.2761 0-.5.2239-.5.5s.2239.5.5.5h.5v1h-.5c-.2761 0-.5.2239-.5.5s.2239.5.5.5h.5v1.5c0 .2761.2239.5.5.5s.5-.2239.5-.5v-1.5h1.5c.2761 0 .5-.2239.5-.5s-.2239-.5-.5-.5h-1.5v-1z"/>
            <path d="M24 15.4998c0 .276.2239.4998.5.4998c.2762 0 .5-.2238.5-.4998v-13.8322l2.1528 2.1861c.1983.1919.5145.1866.7064-.0118c.1918-.1984.1865-.5148-.0118-.7067l-2.9915-2.9951c-.1119-.1083-.2614-.1538-.4049-.1372c-.1129.0081-.2238.0544-.3115.1392l-2.9902 2.9935c-.1984.1918-.2036.5081-.0118.7064c.1919.1983.5083.2036.7067.0118l2.1531-2.1842c0-0 0 13.8303 0 13.8303z"/>
        </symbol>
    </svg>
    <!-- иконки со стрелками вниз-->
    <svg>
        <symbol id="difficult_sort_DESC" viewBox="0 0 32 16">
            <path d="M18.5 2c.2761 0 .5.2239.5.5s-.2239.5-.5.5h-7c-.2761 0-.5-.2239-.5-.5s.2239-.5.5-.5h7zm.5 4.5c0-.2761-.2239-.5-.5-.5h-9c-.2761 0-.5.2239-.5.5s.2239.5.5.5h9c.2761 0 .5-.2239.5-.5zm-.5 3.5c.2761 0 .5.2239.5.5s-.2239.5-.5.5h-11c-.2761 0-.5-.2239-.5-.5s.2239-.5.5-.5h11zm0 4c.2761 0 .5.2239.5.5s-.2239.5-.5.5h-13c-.2761 0-.5-.2239-.5-.5s.2239-.5.5-.5h13z"/>
            <path transform="rotate(180 24.5 8)" d="M24 15.4998c0 .276.2239.4998.5.4998c.2762 0 .5-.2238.5-.4998v-13.8322l2.1528 2.1861c.1983.1919.5145.1866.7064-.0118c.1918-.1984.1865-.5148-.0118-.7067l-2.9915-2.9951c-.1119-.1083-.2614-.1538-.4049-.1372c-.1129.0081-.2238.0544-.3115.1392l-2.9902 2.9935c-.1984.1918-.2036.5081-.0118.7064c.1919.1983.5083.2036.7067.0118l2.1531-2.1842c0-0 0 13.8303 0 13.8303z"/>
        </symbol>
    </svg>

    <svg>
        <symbol id="alphabet_ru_DESC" viewBox="0 0 32 16">
            <path d="M6 .5c0-.3.2-.5.5-.5h2c.3 0 .5.2.5.5s-.2.5-.5.5h-1.5v14h1.5c.3 0 .5.2.5.5c0 .3-.2.5-.5.5h-2c-.3 0-.5-.2-.5-.5c0 0 0-15 0-15zm11 8.5c.6 0 1 .4 1 1v5.5c0 .3-.2.5-.5.5c-.3 0-.5-.2-.5-.5v-1.5l0 0h-2.5c-.1 0-.2 0-.2 0l-1.4 1.8c-.2.2-.5.3-.7.1c-.2-.2-.3-.5-.1-.7l1.2-1.5c-.8-.5-1.3-1.3-1.3-2.2c0-1.4 1.1-2.5 2.5-2.5l2.5 0 0 0zm-2.5 1h2.5v3h-2.5c-.8 0-1.5-.7-1.5-1.5c0-.8.7-1.5 1.5-1.5zm2.5-7v1h-4v-1c0-1.1.9-2 2-2c1.1 0 2 .9 2 2zm-4 2h4v1.5c0 .3.2.5.5.5s.5-.2.5-.5v-3.5c0-1.7-1.3-3-3-3c-1.7 0-3 1.3-3 3v3.5c0 .3.2.5.5.5s.5-.2.5-.5v-1.5z"/>
            <path transform="rotate(180 24.5 8)" d="M24 15.4998c0 .276.2239.4998.5.4998c.2762 0 .5-.2238.5-.4998v-13.8322l2.1528 2.1861c.1983.1919.5145.1866.7064-.0118c.1918-.1984.1865-.5148-.0118-.7067l-2.9915-2.9951c-.1119-.1083-.2614-.1538-.4049-.1372c-.1129.0081-.2238.0544-.3115.1392l-2.9902 2.9935c-.1984.1918-.2036.5081-.0118.7064c.1919.1983.5083.2036.7067.0118l2.1531-2.1842c0-0 0 13.8303 0 13.8303z"/>
        </symbol>
    </svg>

    <svg>
        <symbol id="alphabet_en_DESC" viewBox="0 0 32 16">
            <path d="M6 .5a.5.5 0 01.5-.5h2a.5.5 0 010 1h-1.5v14h1.5a.5.5 0 010 1h-2a.5.5 0 01-.5-.5v-15zm6 9a.5.5 0 01.5-.5h5a.5.5 0 01.408.792a.499.499 0 01-.031.04l-4.307 5.168h3.93a.5.5 0 010 1h-5a.5.5 0 01-.359-.848l4.294-5.152h-3.935a.5.5 0 01-.5-.5zm5-6.5v1h-4v-1a2 2 0 014 0zm-4 2h4v1.5a.5.5 0 001 0v-3.5a3 3 0 10-6 0v3.5a.5.5 0 001 0v-1.5z"/>
            <path transform="rotate(180 24.5 8)" d="M24 15.4998c0 .276.2239.4998.5.4998c.2762 0 .5-.2238.5-.4998v-13.8322l2.1528 2.1861c.1983.1919.5145.1866.7064-.0118c.1918-.1984.1865-.5148-.0118-.7067l-2.9915-2.9951c-.1119-.1083-.2614-.1538-.4049-.1372c-.1129.0081-.2238.0544-.3115.1392l-2.9902 2.9935c-.1984.1918-.2036.5081-.0118.7064c.1919.1983.5083.2036.7067.0118l2.1531-2.1842c0-0 0 13.8303 0 13.8303z"/>
        </symbol>
    </svg>

    <svg>
        <symbol id="time_DESC" viewBox="0 0 32 16">
            <path d="M12 16c-4.4114 0-8-3.5886-8-8c0-4.4114 3.5886-8 8-8c4.4114 0 8 3.5886 8 8c0 4.4114-3.5886 8-8 8zm0-15c-3.86 0-7 3.14-7 7c0 3.86 3.14 7 7 7c3.86 0 7-3.14 7-7c0-3.86-3.14-7-7-7zm-1 2.5c0-.2761.2239-.5.5-.5s.5.2239.5.5v4.5h3.5c.2761 0 .5.2239.5.5c0 .2762-.2239.5-.5.5h-4c-.2761 0-.5-.2238-.5-.5v-5z"/>
            <path transform="rotate(180 24.5 8)" d="M24 15.4998c0 .276.2239.4998.5.4998c.2762 0 .5-.2238.5-.4998v-13.8322l2.1528 2.1861c.1983.1919.5145.1866.7064-.0118c.1918-.1984.1865-.5148-.0118-.7067l-2.9915-2.9951c-.1119-.1083-.2614-.1538-.4049-.1372c-.1129.0081-.2238.0544-.3115.1392l-2.9902 2.9935c-.1984.1918-.2036.5081-.0118.7064c.1919.1983.5083.2036.7067.0118l2.1531-2.1842c0-0 0 13.8303 0 13.8303z"/>
        </symbol>
    </svg>

    <svg>
        <symbol id="date_DESC" viewBox="0 0 32 16">
            <path d="M7.5 1a.5.5 0 00-.5.5v.5h-1.167c-1.011 0-1.833.785-1.833 1.75v10.5c0 .965.822 1.75 1.833 1.75h12.334c1.011 0 1.833-.785 1.833-1.75v-10.5c0-.965-.822-1.75-1.833-1.75h-1.167v-.5a.5.5 0 00-1 0v.5h-8v-.5a.5.5 0 00-.5-.5zm8.5 2.5v-.545h-8v.545a.5.5 0 01-1 0v-.545h-1.167c-.459 0-.833.356-.833.795v10.5c0 .438.374.795.833.795h12.334c.459 0 .833-.357.833-.795v-10.5c0-.439-.374-.795-.833-.795h-1.167v.545a.5.5 0 01-1 0zm1.5 2.5h-11a.5.5 0 010-1h11a.5.5 0 010 1zm-8.5 3v-1h-2v1h2zm0 1v1h-2v-1h2zm0 3v-1h-2v1h2zm2-5h2v1h-2v-1zm2 2h-2v1h2v-1zm-2 2h2v1h-2v-1zm6-3v-1h-2v1h2zm0 1v1h-2v-1h2zm0 3v-1h-2v1h2z"/>
            <path transform="rotate(180 24.5 8)" d="M24 15.4998c0 .276.2239.4998.5.4998c.2762 0 .5-.2238.5-.4998v-13.8322l2.1528 2.1861c.1983.1919.5145.1866.7064-.0118c.1918-.1984.1865-.5148-.0118-.7067l-2.9915-2.9951c-.1119-.1083-.2614-.1538-.4049-.1372c-.1129.0081-.2238.0544-.3115.1392l-2.9902 2.9935c-.1984.1918-.2036.5081-.0118.7064c.1919.1983.5083.2036.7067.0118l2.1531-2.1842c0-0 0 13.8303 0 13.8303z"/>
        </symbol>
    </svg>

    <svg>
        <symbol id="debt_DESC" viewBox="0 0 32 16">
            <path d="M20 3a1 1 0 01-1 1h-2v10a2 2 0 01-2 2h-8.5c-.667 0-1.318-.27-1.797-.75c-.458-.458-.703-1.177-.703-1.844v-.406a1 1 0 011-1v-9.594c0-.666.042-1.448.5-1.906c.48-.48 1.333-.5 2-.5h10.5c.52 0 1.125.125 1.5.5s.5.885.5 1.406v1.094zm-5 12a1 1 0 001-1v-13h-8.61c-.39-.003-.728-.005-1.014.28c-.314.314-.376.69-.376 1.126v9.594h7.594c.224 0 .406.182.406.406v1.594a1 1 0 001 1zm-2-2v1c0 .364.097.706.268 1h-6.768c-.438 0-.813-.156-1.125-.469c-.313-.311-.375-.687-.375-1.125v-.406h8zm5-12h-1v2h2v-1.094c0-.5-.406-.906-.906-.906h-.094zm-10 2.5a.5.5 0 01.5-.5h5a.5.5 0 010 1h-5a.5.5 0 01-.5-.5zm0 3a.5.5 0 01.5-.5h5a.5.5 0 010 1h-5a.5.5 0 01-.5-.5zm.5 2.5a.5.5 0 000 1h5a.5.5 0 000-1h-5z"/>
            <path transform="rotate(180 24.5 8)" d="M24 15.4998c0 .276.2239.4998.5.4998c.2762 0 .5-.2238.5-.4998v-13.8322l2.1528 2.1861c.1983.1919.5145.1866.7064-.0118c.1918-.1984.1865-.5148-.0118-.7067l-2.9915-2.9951c-.1119-.1083-.2614-.1538-.4049-.1372c-.1129.0081-.2238.0544-.3115.1392l-2.9902 2.9935c-.1984.1918-.2036.5081-.0118.7064c.1919.1983.5083.2036.7067.0118l2.1531-2.1842c0-0 0 13.8303 0 13.8303z"/>
        </symbol>
    </svg>

    <svg>
        <symbol id="deflection_DESC" viewBox="0 0 32 16">
            <path d="M11.9731 1c-.1787 0-.3438.0952-.4331.25l-6.5001 13c-.0894.1548-.0894.3452 0 .5c.0894.1548.2544.25.4331.25h12.9996c.1788 0 .3438-.0952.4332-.25c.0893-.1548.0893-.3452 0-.5l-6.4996-13c-.0894-.1548-.2544-.25-.4332-.25zm-5.6343 13 5.6343-11.4994 5.6337 11.4994h-11.268z"/>
            <path transform="rotate(180 24.5 8)" d="M24 15.4998c0 .276.2239.4998.5.4998c.2762 0 .5-.2238.5-.4998v-13.8322l2.1528 2.1861c.1983.1919.5145.1866.7064-.0118c.1918-.1984.1865-.5148-.0118-.7067l-2.9915-2.9951c-.1119-.1083-.2614-.1538-.4049-.1372c-.1129.0081-.2238.0544-.3115.1392l-2.9902 2.9935c-.1984.1918-.2036.5081-.0118.7064c.1919.1983.5083.2036.7067.0118l2.1531-2.1842c0-0 0 13.8303 0 13.8303z"/>
        </symbol>
    </svg>

    <svg>
        <symbol id="number_DESC" viewBox="0 0 32 16">
            <path d="M6.5 0a.5.5 0 00-.5.5v15a.5.5 0 00.5.5h2a.5.5 0 000-1h-1.5v-14h1.5a.5.5 0 000-1h-2zm6.5 10.5a.5.5 0 01.5-.5h3a.5.5 0 01.5.5v1.5h-3.5a.5.5 0 01-.5-.5v-1zm3.5-1.5a1.5 1.5 0 011.5 1.5v4c0 1-.5 1.5-1.5 1.5h-4a.5.5 0 010-1h4a.5.5 0 00.5-.5v-1.5h-3.5a1.5 1.5 0 01-1.5-1.5v-1a1.5 1.5 0 011.5-1.5h3zm-.5-8.5a.5.5 0 00-.5-.5h-2a.5.5 0 000 1h1.5v5h-1.5a.5.5 0 000 1h4a.5.5 0 000-1h-1.5v-5.5z"/>
            <path transform="rotate(180 24.5 8)" d="M24 15.4998c0 .276.2239.4998.5.4998c.2762 0 .5-.2238.5-.4998v-13.8322l2.1528 2.1861c.1983.1919.5145.1866.7064-.0118c.1918-.1984.1865-.5148-.0118-.7067l-2.9915-2.9951c-.1119-.1083-.2614-.1538-.4049-.1372c-.1129.0081-.2238.0544-.3115.1392l-2.9902 2.9935c-.1984.1918-.2036.5081-.0118.7064c.1919.1983.5083.2036.7067.0118l2.1531-2.1842c0-0 0 13.8303 0 13.8303z"/>
        </symbol>
    </svg>

    <svg>
        <symbol id="partner_DESC" viewBox="0 0 32 16">
            <path d="M16.6 10.8l-2.2-.5c-.6-.1-.4-1-.4-1c.1-.3.7-1.4.8-1.4c.4-.4.9-1 1-1.7c.1-.6 0-1-.1-1.3c0-.5 0-1.5-.2-2.2c0-.8-.2-1.3-.5-1.7c-.3-.3-1.2-.5-1.3-.5c-.5-.3-1.1-.5-1.7-.5c-1.3.1-3 .9-3.5 2.6c-.2.4-.2 2.3-.2 2.3c-.1.2-.2.6-.1 1.2c.1.7.6 1.3 1 1.7c.1.1.7 1.2.8 1.5c0 0 .2 1-.4 1.1l-2.2.5c-1.4.2-2.4 1.5-2.4 3v1c0 .6.4 1.1 1 1.1h12c.6 0 1-.5 1-1.1v-1c0-1.5-1-2.8-2.4-3.1zm1.4 4.2h-12v-1.1c0-1 .7-1.9 1.6-2.1l2.2-.5c.7-.1 1.2-.8 1.2-1.5v-.7c-.1-.4-.4-.9-.5-1.1c-.2-.4-.4-.8-.6-.9c-.3-.4-.6-.8-.7-1.2c-.1-.4.2-.7.2-1c0 0 0-1.6.1-1.9c.3-1.2 1.5-2 2.5-2c.5 0 .8.1 1.2.4c1.3.1 1.2.7 1.3 1.5c.1.5.2 1.5.1 1.9c0 .3.3.6.2 1c-.1.4-.4.8-.7 1.2c-.2.2-.4.6-.6 1c-.1.2-.5.8-.5 1.1v.7c0 .8.5 1.4 1.2 1.5l2.2.5c.9.2 1.6 1.1 1.6 2.1v1.1z"/>
            <path transform="rotate(180 24.5 8)" d="M24 15.4998c0 .276.2239.4998.5.4998c.2762 0 .5-.2238.5-.4998v-13.8322l2.1528 2.1861c.1983.1919.5145.1866.7064-.0118c.1918-.1984.1865-.5148-.0118-.7067l-2.9915-2.9951c-.1119-.1083-.2614-.1538-.4049-.1372c-.1129.0081-.2238.0544-.3115.1392l-2.9902 2.9935c-.1984.1918-.2036.5081-.0118.7064c.1919.1983.5083.2036.7067.0118l2.1531-2.1842c0-0 0 13.8303 0 13.8303z"/>
        </symbol>
    </svg>

    <svg>
        <symbol id="recall_DESC" viewBox="0 0 32 16">
            <path d="M15.0489 2.4944c-1.0147 0-2.2617.898-2.9999 1.5994c-.7383-.7014-1.9853-1.5994-3.0001-1.5994c-2.1001 0-3.5 1.6431-3.5 3.7407c0 2.4516 2.8295 5.1503 6.2478 8.1695c.072.0636.1621.0954.2522.0954c.0902 0 .1803-.0318.2524-.0955c3.4181-3.0193 6.2476-5.718 6.2476-8.1694c0-2.0976-1.3999-3.7407-3.5-3.7407z"/>
            <path transform="rotate(180 24.5 8)" d="M24 15.4998c0 .276.2239.4998.5.4998c.2762 0 .5-.2238.5-.4998v-13.8322l2.1528 2.1861c.1983.1919.5145.1866.7064-.0118c.1918-.1984.1865-.5148-.0118-.7067l-2.9915-2.9951c-.1119-.1083-.2614-.1538-.4049-.1372c-.1129.0081-.2238.0544-.3115.1392l-2.9902 2.9935c-.1984.1918-.2036.5081-.0118.7064c.1919.1983.5083.2036.7067.0118l2.1531-2.1842c0-0 0 13.8303 0 13.8303z"/>
        </symbol>
    </svg>

    <svg>
        <symbol id="problem_DESC" viewBox="0 0 32 16">
            <path d="M12 15c3.866 0 7-3.134 7-7c0-3.866-3.134-7-7-7c-3.866 0-7 3.134-7 7c0 3.866 3.134 7 7 7zm0 1c4.4183 0 8-3.5817 8-8c0-4.4183-3.5817-8-8-8c-4.4183 0-8 3.5817-8 8c0 4.4183 3.5817 8 8 8zm-1-12c0-.5523.4477-1 1-1c.5523 0 1 .4477 1 1v5c0 .5523-.4477 1-1 1c-.5523 0-1-.4477-1-1v-5zm1 9c.5523 0 1-.4477 1-1s-.4477-1-1-1c-.5523 0-1 .4477-1 1s.4477 1 1 1z"/>
            <path transform="rotate(180 24.5 8)" d="M24 15.4998c0 .276.2239.4998.5.4998c.2762 0 .5-.2238.5-.4998v-13.8322l2.1528 2.1861c.1983.1919.5145.1866.7064-.0118c.1918-.1984.1865-.5148-.0118-.7067l-2.9915-2.9951c-.1119-.1083-.2614-.1538-.4049-.1372c-.1129.0081-.2238.0544-.3115.1392l-2.9902 2.9935c-.1984.1918-.2036.5081-.0118.7064c.1919.1983.5083.2036.7067.0118l2.1531-2.1842c0-0 0 13.8303 0 13.8303z"/>
        </symbol>
    </svg>

    <svg>
        <symbol id="rating_DESC" viewBox="0 0 32 16">
            <path d="M19.49 6.803c-.114-.342-.453-.576-.93-.644l-3.891-.55-1.74-3.433c-.213-.422-.547-.663-.915-.663c-.369 0-.702.241-.916.662l-1.74 3.435-3.89.55c-.477.068-.816.302-.93.644c-.114.341.019.725.364 1.053l2.815 2.672-.664 3.774c-.085.483.06.772.196.93c.16.184.394.286.657.286c.2 0 .41-.056.628-.168l3.48-1.782 3.48 1.782c.217.112.429.168.627.168h0a.852.852 0 00.657-.287c.137-.157.282-.446.197-.93l-.665-3.773 2.815-2.672c.345-.328.478-.712.364-1.053z"/>
            <path transform="rotate(180 24.5 8)" d="M24 15.4998c0 .276.2239.4998.5.4998c.2762 0 .5-.2238.5-.4998v-13.8322l2.1528 2.1861c.1983.1919.5145.1866.7064-.0118c.1918-.1984.1865-.5148-.0118-.7067l-2.9915-2.9951c-.1119-.1083-.2614-.1538-.4049-.1372c-.1129.0081-.2238.0544-.3115.1392l-2.9902 2.9935c-.1984.1918-.2036.5081-.0118.7064c.1919.1983.5083.2036.7067.0118l2.1531-2.1842c0-0 0 13.8303 0 13.8303z"/>
        </symbol>
    </svg>

    <svg>
        <symbol id="timing_DESC" viewBox="0 0 32 16">
            <path d="M6.5 1h.5v2.515c0 1.085.462 2.124 1.269 2.85c.548.493.941.712 1.193.852c.118.065.205.114.262.165a.82.82 0 01.276.62a.82.82 0 01-.276.619c-.057.05-.144.099-.261.164c-.252.14-.645.357-1.194.85a3.836 3.836 0 00-1.269 2.851v2.514h-.5a.5.5 0 000 1h11a.5.5 0 000-1h-.5v-2.515a3.841 3.841 0 00-1.269-2.85a5.85 5.85 0 00-1.193-.852a1.522 1.522 0 01-.262-.164a.82.82 0 01-.276-.62c0-.24.097-.459.276-.619c.057-.051.144-.1.261-.164c.252-.14.645-.358 1.194-.852a3.836 3.836 0 001.269-2.849v-2.515h.5a.5.5 0 000-1h-11a.5.5 0 000 1zm9.5 0h-8v2.515c0 .802.342 1.57.938 2.106l1.455 1.016c.387.348.607.844.607 1.363s-.221 1.015-.607 1.363a3.397 3.397 0 01-.57.39c-.262.154-.555.327-.885.625a2.842 2.842 0 00-.896 1.622h7.916a2.837 2.837 0 00-.896-1.62a5.077 5.077 0 00-.883-.625c-.21-.124-.4-.237-.572-.392a1.838 1.838 0 01-.607-1.362c0-.519.221-1.016.607-1.363c.171-.155.36-.267.57-.391c.262-.154.555-.327.885-.625a2.84 2.84 0 00.938-2.107v-2.515zm-8 14v-1h1v1h-1zm2 0h1v-1h1v1h1v-1h1v1h1v-1h1v-1h-1v1h-1v-1h-1v1h-1v-1h-1v1h-1v-1h-1v1h1v1z"/>
            <path transform="rotate(180 24.5 8)" d="M24 15.4998c0 .276.2239.4998.5.4998c.2762 0 .5-.2238.5-.4998v-13.8322l2.1528 2.1861c.1983.1919.5145.1866.7064-.0118c.1918-.1984.1865-.5148-.0118-.7067l-2.9915-2.9951c-.1119-.1083-.2614-.1538-.4049-.1372c-.1129.0081-.2238.0544-.3115.1392l-2.9902 2.9935c-.1984.1918-.2036.5081-.0118.7064c.1919.1983.5083.2036.7067.0118l2.1531-2.1842c0-0 0 13.8303 0 13.8303z"/>
        </symbol>
    </svg>

    <svg>
        <symbol id="sum_DESC" viewBox="0 0 32 16">
            <path d="M16.5 15h-9c-.1885 0-.3608-.1059-.4458-.2739c-.0854-.168-.0688-.3697.0425-.522l4.9033-6.2041-4.9033-6.2041c-.1113-.1523-.1279-.354-.0425-.522c.085-.168.2573-.2739.4458-.2739h9c.2764 0 .5.2236.5.5v2c0 .2761-.2238.5-.5.5l0 0c-.2761 0-.5-.2239-.5-.5v-1.5h-7.5132l4.5366 5.7041c.1289.1763.1289.4155 0 .5918l-4.5366 5.7041h7.5132v-1.5c0-.2761.2239-.5.5-.5l0 0c.2761 0 .5.2239.5.5v2c0 .2763-.2236.5-.5.5z"/>
            <path transform="rotate(180 24.5 8)" d="M24 15.4998c0 .276.2239.4998.5.4998c.2762 0 .5-.2238.5-.4998v-13.8322l2.1528 2.1861c.1983.1919.5145.1866.7064-.0118c.1918-.1984.1865-.5148-.0118-.7067l-2.9915-2.9951c-.1119-.1083-.2614-.1538-.4049-.1372c-.1129.0081-.2238.0544-.3115.1392l-2.9902 2.9935c-.1984.1918-.2036.5081-.0118.7064c.1919.1983.5083.2036.7067.0118l2.1531-2.1842c0-0 0 13.8303 0 13.8303z"/>
        </symbol>
    </svg>

    <svg>
        <symbol id="price_DESC" viewBox="0 0 32 16">
            <path d="M19 8c0 3.866-3.134 7-7 7c-3.866 0-7-3.134-7-7c0-3.866 3.134-7 7-7c3.866 0 7 3.134 7 7zm1 0c0 4.4183-3.5817 8-8 8c-4.4183 0-8-3.5817-8-8c0-4.4183 3.5817-8 8-8c4.4183 0 8 3.5817 8 8zm-9-3v.5v2.5h1.5c.8284 0 1.5-.6716 1.5-1.5s-.6716-1.5-1.5-1.5h-1.5zm0 4h1.5c1.3807 0 2.5-1.1193 2.5-2.5s-1.1193-2.5-2.5-2.5h-2c-.2761 0-.5.2239-.5.5v1v2.5h-.5c-.2761 0-.5.2239-.5.5s.2239.5.5.5h.5v1h-.5c-.2761 0-.5.2239-.5.5s.2239.5.5.5h.5v1.5c0 .2761.2239.5.5.5s.5-.2239.5-.5v-1.5h1.5c.2761 0 .5-.2239.5-.5s-.2239-.5-.5-.5h-1.5v-1z"/>
            <path transform="rotate(180 24.5 8)" d="M24 15.4998c0 .276.2239.4998.5.4998c.2762 0 .5-.2238.5-.4998v-13.8322l2.1528 2.1861c.1983.1919.5145.1866.7064-.0118c.1918-.1984.1865-.5148-.0118-.7067l-2.9915-2.9951c-.1119-.1083-.2614-.1538-.4049-.1372c-.1129.0081-.2238.0544-.3115.1392l-2.9902 2.9935c-.1984.1918-.2036.5081-.0118.7064c.1919.1983.5083.2036.7067.0118l2.1531-2.1842c0-0 0 13.8303 0 13.8303z"/>
        </symbol>
    </svg>
</svg>


